# This file uses centimeters as units for non-parametric coordinates.

mtllib tricusp_finish_new.mtl
g default
v -0.157166 0.038581 0.083450
v -0.077548 0.043785 0.210701
v -0.451900 -0.021009 0.295118
v -0.362855 0.088918 -0.011948
v -0.111227 -0.239488 0.339451
v -0.210048 0.124029 0.374660
v -0.365144 0.142312 -0.030130
v -0.378259 0.012946 -0.040699
v -0.353702 -0.255120 0.157532
v -0.180638 -0.223439 0.075570
v -0.131811 0.255981 0.234017
v -0.345559 0.255659 0.252982
v -0.356464 0.218576 0.008080
v -0.396782 -0.062275 -0.026821
vn 0.847313 -0.060033 -0.527689
vn 0.847313 -0.060033 -0.527689
vn 0.847313 -0.060033 -0.527689
vn 0.804905 0.163562 0.570417
vn 0.804905 0.163562 0.570417
vn 0.804905 0.163562 0.570417
vn 0.937659 -0.229937 -0.260625
vn 0.937659 -0.229937 -0.260625
vn 0.937659 -0.229937 -0.260625
vn 0.812562 0.264842 -0.519232
vn 0.812562 0.264842 -0.519232
vn 0.812562 0.264842 -0.519232
vn 0.802675 0.141601 0.579363
vn 0.802675 0.141601 0.579363
vn 0.802675 0.141601 0.579363
vn 0.061109 0.710731 0.700805
vn 0.061109 0.710731 0.700805
vn 0.061109 0.710731 0.700805
vn 0.491106 -0.017802 -0.870918
vn 0.491106 -0.017802 -0.870918
vn 0.491106 -0.017802 -0.870918
vn 0.135274 -0.986189 -0.095561
vn 0.135274 -0.986189 -0.095561
vn 0.135274 -0.986189 -0.095561
vn -0.254866 -0.589926 -0.766180
vn -0.254866 -0.589926 -0.766180
vn -0.254866 -0.589926 -0.766180
vn 0.487568 0.021879 -0.872811
vn 0.487568 0.021879 -0.872811
vn 0.487568 0.021879 -0.872811
vn 0.586584 0.413771 -0.696213
vn 0.586585 0.413771 -0.696213
vn 0.586584 0.413771 -0.696213
vn -0.982567 -0.102535 -0.155079
vn -0.982567 -0.102535 -0.155079
vn -0.982567 -0.102535 -0.155079
vn -0.982567 -0.102535 -0.155079
vn -0.960035 0.260832 -0.101486
vn -0.960035 0.260832 -0.101486
vn -0.960035 0.260832 -0.101486
vn -0.960035 0.260832 -0.101487
vn -0.224067 -0.154118 0.962311
vn -0.224067 -0.154118 0.962311
vn -0.224067 -0.154118 0.962311
vn -0.462092 -0.585352 0.666209
vn -0.462092 -0.585352 0.666208
vn -0.462092 -0.585352 0.666209
vn -0.456763 0.302947 0.836415
vn -0.456763 0.302947 0.836416
vn -0.456763 0.302947 0.836415
vn -0.944019 0.069352 0.322520
vn -0.944019 0.069352 0.322520
vn -0.944019 0.069352 0.322520
vn 0.994704 -0.098494 -0.029378
vn 0.994704 -0.098494 -0.029378
vn 0.994704 -0.098494 -0.029378
vn -0.971381 0.225357 -0.075052
vn -0.971381 0.225357 -0.075052
vn -0.971381 0.225357 -0.075052
vn -0.034176 0.928632 -0.369425
vn -0.034176 0.928632 -0.369425
vn -0.034176 0.928632 -0.369425
vn -0.982904 0.020178 0.183009
vn -0.982904 0.020178 0.183009
vn -0.982904 0.020178 0.183009
vn 0.816724 -0.292849 -0.497193
vn 0.816724 -0.292849 -0.497193
vn 0.816724 -0.292849 -0.497193
s off
g _f1:Mesh
usemtl initialShadingGroup
f 2//1 10//2 1//3
f 5//4 2//5 6//6
f 10//7 2//8 5//9
f 1//10 11//11 2//12
f 2//13 11//14 6//15
f 6//16 11//17 12//18
f 1//19 10//20 8//21
f 5//22 9//23 10//24
f 8//25 10//26 9//27
f 1//28 8//29 7//30
f 1//31 7//32 11//33
f 4//34 14//35 9//36 3//37
f 4//38 3//39 12//40 13//41
f 5//42 6//43 3//44
f 3//45 9//46 5//47
f 6//48 12//49 3//50
f 7//51 8//52 4//53
f 7//54 13//55 12//56
f 8//57 14//58 4//59
f 7//60 12//61 11//62
f 13//63 7//64 4//65
f 14//66 8//67 9//68
